<?xml version="1.0" encoding="utf-8"?>
<!-- Generator: Adobe Illustrator 18.0.0, SVG Export Plug-In . SVG Version: 6.00 Build 0)  -->
<!DOCTYPE svg PUBLIC "-//W3C//DTD SVG 1.1//EN" "http://www.w3.org/Graphics/SVG/1.1/DTD/svg11.dtd">
<svg version="1.1" xmlns="http://www.w3.org/2000/svg" xmlns:xlink="http://www.w3.org/1999/xlink" x="0px" y="0px"
	 viewBox="0 0 30 30" enable-background="new 0 0 30 30" xml:space="preserve">
<g id="Background_xA0_Image_1_">
</g>
<g id="Row_1_1_">
	<g id="archive">
		<g>
			<path fill-rule="evenodd" clip-rule="evenodd" fill="#FFFFFF" d="M21,6H9l-6,6v9c0,1.7,1.4,3,3,3h18c1.7,0,3-1.3,3-3v-9L21,6z
				 M9.8,8h10.4l4,4L19,12c0,2-1.8,4-4,4c-2.2,0-4-2-4-4H5.8L9.8,8z M25,21c0,0.6-0.4,1-1,1H6c-0.6,0-1-0.5-1-1v-7h4.3
				c0.9,2.3,3.2,4,5.7,4c2.5,0,4.8-1.7,5.6-4l4.4,0V21z"/>
		</g>
	</g>
</g>
</svg>
