<?xml version="1.0" encoding="utf-8"?>
<!-- Generator: Adobe Illustrator 18.0.0, SVG Export Plug-In . SVG Version: 6.00 Build 0)  -->
<!DOCTYPE svg PUBLIC "-//W3C//DTD SVG 1.1//EN" "http://www.w3.org/Graphics/SVG/1.1/DTD/svg11.dtd">
<svg version="1.1" xmlns="http://www.w3.org/2000/svg" xmlns:xlink="http://www.w3.org/1999/xlink" x="0px" y="0px"
	 viewBox="0 0 30 30" enable-background="new 0 0 30 30" xml:space="preserve">
<g id="Background_xA0_Image_1_">
</g>
<g id="Row_1_1_">
	<g id="minimize">
		<g>
			<path fill-rule="evenodd" clip-rule="evenodd" fill="#FFFFFF" d="M13,5c-0.6,0-1,0.4-1,1v4.6L5.7,4.3c-0.4-0.4-1-0.4-1.4,0
				c-0.4,0.4-0.4,1,0,1.4l6.3,6.3H6c-0.6,0-1,0.4-1,1c0,0.6,0.4,1,1,1h7c0.6,0,1-0.5,1-1V6C14,5.4,13.5,5,13,5z M25.7,24.3L19.4,18
				H24c0.6,0,1-0.4,1-1c0-0.6-0.4-1-1-1h-7c-0.6,0-1,0.5-1,1v7c0,0.6,0.4,1,1,1s1-0.4,1-1v-4.6l6.3,6.3c0.4,0.4,1,0.4,1.4,0
				C26.1,25.3,26.1,24.7,25.7,24.3z"/>
		</g>
	</g>
</g>
</svg>
